# xmcd
#
# Track frame offsets:
#	150
#	15197
#	30947
#	46145
#	60542
#	79092
#	94757
#	108545
#	125532
#	146267
#	163055
#	177547
#	194932
#	220352
#
# Disc length: 2950 seconds
#
# Revision: 0
# Processed by: cddbd v1.5.2PL0 Copyright (c) Steve Scherf et al.
# Submitted via: audiograbber 1.83.01
#
DISCID=bd0b840e
DTITLE=Nora Jones - Feels like Home
DYEAR=1900
DGENRE=
TTITLE0=Sunrice
TTITLE1=What Am I to you
TTITLE2=Those sweet words
TTITLE3=Carneval town
TTITLE4=In the Morning
TTITLE5=Be here to love me
TTITLE6=Greppuri In
TTITLE7=Toes
TTITLE8=Humble me
TTITLE9=Abouve ground
TTITLE10=The long way home
TTITLE11=The prettest Thing
TTITLE12=Don`t miss you at all
TTITLE13=Daten-CD
EXTD=
EXTT0=
EXTT1=
EXTT2=
EXTT3=
EXTT4=
EXTT5=
EXTT6=
EXTT7=
EXTT8=
EXTT9=
EXTT10=
EXTT11=
EXTT12=
EXTT13=
PLAYORDER=
